{
	"meshes": [
		{
			"name": "deck-wrap",
			"primitives": [
				{
					"attributes": {
						"POSITION": 1,
						"NORMAL": 2,
						"TEXCOORD_0": 3
					},
					"indices": 0,
					"material": 0
				}
			]
		},
		{
			"name": "deck-rim",
			"primitives": [
				{
					"attributes": {
						"POSITION": 5,
						"NORMAL": 6,
						"TEXCOORD_0": 7
					},
					"indices": 4,
					"material": 1
				}
			]
		},
		{
			"name": "trucks",
			"primitives": [
				{
					"attributes": {
						"POSITION": 9,
						"NORMAL": 10,
						"TEXCOORD_0": 11
					},
					"indices": 8,
					"material": 2
				}
			]
		},
		{
			"name": "bearings",
			"primitives": [
				{
					"attributes": {
						"POSITION": 13,
						"NORMAL": 14,
						"TEXCOORD_0": 15
					},
					"indices": 12,
					"material": 3
				}
			]
		},
		{
			"name": "wheels",
			"primitives": [
				{
					"attributes": {
						"POSITION": 17,
						"NORMAL": 18,
						"TEXCOORD_0": 19
					},
					"indices": 16,
					"material": 4
				}
			]
		}
	],
	"asset": {
		"version": "2.0",
		"generator": "Created with <3 by the sk8team"
	},
	"scenes": [
		{
			"nodes": [
				0,
				1,
				2,
				3,
				4
			]
		}
	],
	"nodes": [
		{
			"name": "deck-wrap",
			"mesh": 0
		},
		{
			"name": "deck-rim",
			"mesh": 1
		},
		{
			"name": "trucks",
			"translation": [
				0.0,
				-10.0,
				0.0
			],
			"rotation": [
				0.0,
				0.0,
				0.0,
				-1.0
			],
			"scale": [
				1.0,
				1.0,
				1.0
			],
			"mesh": 2
		},
		{
			"name": "bearings",
			"translation": [
				0.0,
				-10.0,
				0.0
			],
			"rotation": [
				0.0,
				0.0,
				0.0,
				-1.0
			],
			"scale": [
				1.0,
				1.0,
				1.0
			],
			"mesh": 3
		},
		{
			"name": "wheels",
			"translation": [
				0.0,
				-10.0,
				0.0
			],
			"rotation": [
				0.0,
				0.0,
				0.0,
				-1.0
			],
			"scale": [
				1.0,
				1.0,
				1.0
			],
			"mesh": 4
		}
	],
	"accessors": [
		{
			"bufferView": 0,
			"type": "SCALAR",
			"componentType": 5123,
			"count": 6135,
			"byteOffset": 0,
			"min": [
				0
			],
			"max": [
				1128
			]
		},
		{
			"bufferView": 1,
			"type": "VEC3",
			"componentType": 5126,
			"count": 1129,
			"byteOffset": 0,
			"min": [
				-9.641683578491211,
				-2.3096113204956056,
				-38.90218734741211
			],
			"max": [
				9.64407730102539,
				2.186765432357788,
				38.888362884521487
			]
		},
		{
			"bufferView": 1,
			"type": "VEC3",
			"componentType": 5126,
			"count": 1129,
			"byteOffset": 12,
			"min": [
				-0.28429993987083437,
				-0.9999998807907105,
				-0.6206119060516357
			],
			"max": [
				0.2844478487968445,
				0.9999999403953552,
				0.5823014378547669
			]
		},
		{
			"bufferView": 1,
			"type": "VEC2",
			"componentType": 5126,
			"count": 1129,
			"byteOffset": 24,
			"min": [
				0.22700121998786927,
				0.0015449307393282652
			],
			"max": [
				0.7758529186248779,
				0.9987386465072632
			]
		},
		{
			"bufferView": 2,
			"type": "SCALAR",
			"componentType": 5123,
			"count": 2748,
			"byteOffset": 0,
			"min": [
				0
			],
			"max": [
				619
			]
		},
		{
			"bufferView": 3,
			"type": "VEC3",
			"componentType": 5126,
			"count": 620,
			"byteOffset": 0,
			"min": [
				-9.917961120605469,
				-2.27451753616333,
				-39.021568298339847
			],
			"max": [
				9.920354843139649,
				2.186765432357788,
				39.02381896972656
			]
		},
		{
			"bufferView": 3,
			"type": "VEC3",
			"componentType": 5126,
			"count": 620,
			"byteOffset": 12,
			"min": [
				-1.0,
				-0.7904561161994934,
				-0.999794602394104
			],
			"max": [
				1.0,
				0.9664278030395508,
				0.9996171593666077
			]
		},
		{
			"bufferView": 3,
			"type": "VEC2",
			"componentType": 5126,
			"count": 620,
			"byteOffset": 24,
			"min": [
				0.8737258911132813,
				0.03928627818822861
			],
			"max": [
				0.9286502599716187,
				0.964983344078064
			]
		},
		{
			"bufferView": 4,
			"type": "SCALAR",
			"componentType": 5123,
			"count": 169632,
			"byteOffset": 0,
			"min": [
				0
			],
			"max": [
				39657
			]
		},
		{
			"bufferView": 5,
			"type": "VEC3",
			"componentType": 5126,
			"count": 39658,
			"byteOffset": 0,
			"min": [
				-9.382245063781739,
				1.5522973537445069,
				-23.788480758666993
			],
			"max": [
				9.382245063781739,
				9.411748886108399,
				24.072996139526368
			]
		},
		{
			"bufferView": 5,
			"type": "VEC3",
			"componentType": 5126,
			"count": 39658,
			"byteOffset": 12,
			"min": [
				-1.0,
				-0.9999993443489075,
				-0.9999991059303284
			],
			"max": [
				1.0,
				0.9999993443489075,
				0.9999991059303284
			]
		},
		{
			"bufferView": 5,
			"type": "VEC2",
			"componentType": 5126,
			"count": 39658,
			"byteOffset": 24,
			"min": [
				0.0,
				0.0
			],
			"max": [
				0.9491189122200012,
				0.9950248003005981
			]
		},
		{
			"bufferView": 6,
			"type": "SCALAR",
			"componentType": 5123,
			"count": 7776,
			"byteOffset": 0,
			"min": [
				0
			],
			"max": [
				1627
			]
		},
		{
			"bufferView": 7,
			"type": "VEC3",
			"componentType": 5126,
			"count": 1628,
			"byteOffset": 0,
			"min": [
				-8.614058494567871,
				1.908025860786438,
				-21.85030746459961
			],
			"max": [
				8.614058494567871,
				3.9520084857940676,
				22.140636444091798
			]
		},
		{
			"bufferView": 7,
			"type": "VEC3",
			"componentType": 5126,
			"count": 1628,
			"byteOffset": 12,
			"min": [
				-1.0,
				-0.9966182112693787,
				-0.996619462966919
			],
			"max": [
				1.0,
				0.9969598054885864,
				0.9966214299201965
			]
		},
		{
			"bufferView": 7,
			"type": "VEC2",
			"componentType": 5126,
			"count": 1628,
			"byteOffset": 24,
			"min": [
				0.0016693823272362352,
				0.0016693822108209134
			],
			"max": [
				0.5876614451408386,
				0.9950248003005981
			]
		},
		{
			"bufferView": 8,
			"type": "SCALAR",
			"componentType": 5123,
			"count": 34098,
			"byteOffset": 0,
			"min": [
				0
			],
			"max": [
				7270
			]
		},
		{
			"bufferView": 9,
			"type": "VEC3",
			"componentType": 5126,
			"count": 7271,
			"byteOffset": 0,
			"min": [
				-9.115423202514649,
				0.1519627720117569,
				-24.042327880859376
			],
			"max": [
				9.115398406982422,
				8.49174690246582,
				24.371383666992189
			]
		},
		{
			"bufferView": 9,
			"type": "VEC3",
			"componentType": 5126,
			"count": 7271,
			"byteOffset": 12,
			"min": [
				-1.0,
				-0.9999964833259583,
				-0.999994695186615
			],
			"max": [
				0.9998593926429749,
				0.9999946355819702,
				0.9999552965164185
			]
		},
		{
			"bufferView": 9,
			"type": "VEC2",
			"componentType": 5126,
			"count": 7271,
			"byteOffset": 24,
			"min": [
				0.0,
				0.0
			],
			"max": [
				0.9950248599052429,
				0.9820561408996582
			]
		}
	],
	"bufferViews": [
		{
			"buffer": 0,
			"byteOffset": 0,
			"byteLength": 12270,
			"target": 34963
		},
		{
			"buffer": 0,
			"byteOffset": 12272,
			"byteLength": 36128,
			"target": 34962,
			"byteStride": 32
		},
		{
			"buffer": 1,
			"byteOffset": 0,
			"byteLength": 5496,
			"target": 34963
		},
		{
			"buffer": 1,
			"byteOffset": 5496,
			"byteLength": 19840,
			"target": 34962,
			"byteStride": 32
		},
		{
			"buffer": 2,
			"byteOffset": 0,
			"byteLength": 339264,
			"target": 34963
		},
		{
			"buffer": 2,
			"byteOffset": 339264,
			"byteLength": 1269056,
			"target": 34962,
			"byteStride": 32
		},
		{
			"buffer": 3,
			"byteOffset": 0,
			"byteLength": 15552,
			"target": 34963
		},
		{
			"buffer": 3,
			"byteOffset": 15552,
			"byteLength": 52096,
			"target": 34962,
			"byteStride": 32
		},
		{
			"buffer": 4,
			"byteOffset": 0,
			"byteLength": 68196,
			"target": 34963
		},
		{
			"buffer": 4,
			"byteOffset": 68196,
			"byteLength": 232672,
			"target": 34962,
			"byteStride": 32
		}
	],
	"buffers": [
		{
			"uri": "data:application/octet-stream;base64,",
			"byteLength": 48400
		},
		{
			"uri": "data:application/octet-stream;base64,",
			"byteLength": 25336
		},
		{
			"uri": "data:application/octet-stream;base64,",
			"byteLength": 1608320
		},
		{
			"uri": "data:application/octet-stream;base64,",
			"byteLength": 67648
		},
		{
			"uri": "data:application/octet-stream;base64,",
			"byteLength": 300868
		}
	],
	"materials": [
		{
			"pbrMetallicRoughness": {
				"baseColorFactor": [
					0.8,
					0.8,
					0.8,
					1.0
				],
				"metallicFactor": 0.0,
				"roughnessFactor": 0.5
			},
			"emissiveFactor": [
				0.0,
				0.0,
				0.0
			],
			"alphaMode": "OPAQUE",
			"name": "m-deck-wrap",
			"doubleSided": false
		},
		{
			"pbrMetallicRoughness": {
				"baseColorFactor": [
					0.8,
					0.8,
					0.8,
					1.0
				],
				"metallicFactor": 0.0,
				"roughnessFactor": 0.5
			},
			"emissiveFactor": [
				0.0,
				0.0,
				0.0
			],
			"alphaMode": "OPAQUE",
			"name": "m-deck-rim",
			"doubleSided": false
		},
		{
			"pbrMetallicRoughness": {
				"baseColorFactor": [
					1.0,
					1.0,
					1.0,
					1.0
				],
				"metallicFactor": 1.0,
				"roughnessFactor": 0.4
			},
			"emissiveFactor": [
				0.0,
				0.0,
				0.0
			],
			"alphaMode": "OPAQUE",
			"name": "m-trucks",
			"doubleSided": false
		},
		{
			"pbrMetallicRoughness": {
				"baseColorFactor": [
					1.0,
					0.0,
					0.0,
					1.0
				],
				"metallicFactor": 1.0,
				"roughnessFactor": 0.4
			},
			"emissiveFactor": [
				0.0,
				0.0,
				0.0
			],
			"alphaMode": "OPAQUE",
			"name": "m-bearings",
			"doubleSided": false
		},
		{
			"pbrMetallicRoughness": {
				"baseColorFactor": [
					0.16504854368932043,
					0.16504854368932043,
					0.16504854368932043,
					1.0
				],
				"metallicFactor": 0.3,
				"roughnessFactor": 0.31
			},
			"emissiveFactor": [
				0.0,
				0.0,
				0.0
			],
			"alphaMode": "OPAQUE",
			"name": "m-wheels",
			"doubleSided": false
		}
	]
}